<svg xmlns="http://www.w3.org/2000/svg" version="1.1" xmlns:xlink="http://www.w3.org/1999/xlink" width="512" height="512" x="0" y="0" viewBox="0 0 512.001 512.001" style="enable-background:new 0 0 512 512" xml:space="preserve" class=""><g><path d="M273.973 187.012c-7.634 3.088-13.034 10.627-13.034 19.456 0 11.577 9.272 20.96 20.709 20.96 4.273 0 8.243-1.311 11.541-3.556v-27.596c-.649.062-1.306.101-1.971.101-7.2-.001-13.536-3.723-17.245-9.365z" style="" fill="#ffffff" data-original="#ffffff"></path><path d="m227.46 499.614 32.643-150.058v-3.755c0-10.569-8.496-19.167-18.937-19.167h-43.283v33.263c0 1.65-1.211 2.403-2.691 1.674l-40.114-19.766v8.254c0 1.65-1.35 3-3 3h-26.35c-1.65 0-3-1.35-3-3v-8.252l-40.114 19.766c-1.48.729-2.691-.024-2.691-1.674v-33.264H36.641c-10.44 0-18.936 8.598-18.936 19.167v152.31c0 3.528 2.827 6.389 6.314 6.389h207.379c-2.751-.001-4.523-2.2-3.938-4.887z" style="" fill="#90a7bb" data-original="#90a7bb"></path><path d="M273.216 109.054a6.195 6.195 0 0 1-4.412-1.857l-43.059-43.791c-6.087-6.185-9.441-14.409-9.441-23.156s3.354-16.972 9.441-23.157c6.087-6.186 14.183-9.593 22.791-9.593s16.702 3.407 22.79 9.593l1.891 1.922 1.893-1.922c6.088-6.186 14.18-9.593 22.791-9.593 8.609 0 16.703 3.407 22.789 9.593 6.088 6.185 9.443 14.411 9.443 23.157s-3.355 16.971-9.443 23.156l-43.059 43.791a6.197 6.197 0 0 1-4.415 1.857z" style="" fill="#ff484e" data-original="#ff484e"></path><g style="opacity:0.1;"><path d="M246.613 53.352c-6.087-6.185-9.44-14.409-9.44-23.156 0-8.486 3.165-16.475 8.912-22.593-7.685.584-14.834 3.896-20.34 9.49-6.087 6.185-9.441 14.411-9.441 23.157s3.354 16.971 9.441 23.156l43.059 43.791a6.195 6.195 0 0 0 4.412 1.857 6.193 6.193 0 0 0 4.414-1.857l10.965-11.151-41.982-42.694z" style="" fill="#37005e" data-original="#37005e" class=""></path></g><path d="M68.148 224.841v-31.078H56.16c-8.25 0-15 6.75-15 15v13.445c0 8.25 6.75 15 15 15h13.061a72.801 72.801 0 0 1-1.073-12.367zM221.649 193.763h-11.99v31.078c0 4.22-.381 8.347-1.073 12.367h13.063c8.25 0 15-6.75 15-15v-13.445c0-8.25-6.75-15-15-15z" style="" fill="#ffb98a" data-original="#ffb98a" class=""></path><g style="opacity:0.1;"><path d="M38.602 498.111v-152.31c0-10.569 8.496-19.167 18.937-19.167H36.641c-10.44 0-18.936 8.598-18.936 19.167v152.31c0 3.528 2.827 6.389 6.314 6.389h20.898c-3.487 0-6.315-2.861-6.315-6.389z" style="" fill="#37005e" data-original="#37005e" class=""></path></g><path d="M122.728 330.633v-7.052c0-1.65 1.35-3 3-3h26.35c1.65 0 3 1.35 3 3v7.05l9.707-4.783v-34.36c-8.019 3.192-16.743 4.965-25.881 4.965s-17.862-1.772-25.881-4.965v34.363l9.705 4.782z" style="" fill="#ffb98a" data-original="#ffb98a" class=""></path><g style="opacity:0.1;"><path d="M131.001 295.99a69.853 69.853 0 0 1-17.978-4.501v34.363l9.705 4.782v-7.052c0-1.65 1.35-3 3-3h5.273V295.99z" style="" fill="#37005e" data-original="#37005e" class=""></path></g><path d="M226.801 374.083a4.996 4.996 0 0 0 .053-7.06l-28.972-29.316v22.19c0 1.65-1.211 2.403-2.691 1.674l-8.68-4.277-47.607 144.657-47.607-144.657-8.683 4.278c-1.48.729-2.691-.024-2.691-1.674v-22.191l-28.971 29.316a4.996 4.996 0 0 0 .053 7.06l27.082 26.597a4.906 4.906 0 0 1 0 7.007l-17.212 16.904a4.767 4.767 0 0 0 .083 6.921l74.296 69.571c2.007 1.879 5.292 1.879 7.3 0l74.295-69.571a4.767 4.767 0 0 0 .083-6.921l-17.212-16.904a4.906 4.906 0 0 1 0-7.007l27.081-26.597z" style="" fill="#b9ccd3" data-original="#b9ccd3"></path><path d="M202.823 91.991h-62.669c-10.32 0-19.382 5.542-24.443 13.836H96.856c-15.854 0-28.708 13.008-28.708 29.055v47.333c0-39.551 31.679-52.215 70.756-52.215 39.076 0 70.755 12.665 70.755 52.215V98.908c0-3.82-3.061-6.917-6.836-6.917z" style="" fill="#ffc12e" data-original="#ffc12e" class=""></path><g style="opacity:0.1;"><path d="M89.001 141.199v-6.317c0-16.047 12.854-29.055 28.708-29.055H96.856c-15.854 0-28.708 13.008-28.708 29.055v47.333c0-19.84 7.974-32.912 20.853-41.016z" style="" fill="#37005e" data-original="#37005e" class=""></path></g><g style="opacity:0.1;"><path d="M132.001 130.142v-9.095c0-16.022 12.878-29.056 28.709-29.056h-20.556c-15.831 0-28.709 13.033-28.709 29.056v11.534c6.423-1.364 13.331-2.143 20.556-2.439z" style="" fill="#37005e" data-original="#37005e" class=""></path></g><path d="M209.659 224.841c0 39.551-31.679 71.612-70.755 71.612-39.077 0-70.756-32.062-70.756-71.612v-42.626c0-39.551 31.679-52.215 70.756-52.215 39.076 0 70.755 12.665 70.755 52.215v42.626z" style="" fill="#ffd5b3" data-original="#ffd5b3" class=""></path><g style="opacity:0.1;"><path d="M89.001 224.841v-42.626c0-35.964 26.197-49.694 60.329-51.888-3.403-.22-6.883-.327-10.426-.327-39.077 0-70.756 12.665-70.756 52.215v42.626c0 39.551 31.679 71.612 70.756 71.612 3.543 0 7.023-.272 10.426-.78-34.132-5.103-60.329-34.867-60.329-70.832z" style="" fill="#37005e" data-original="#37005e" class=""></path></g><path d="M155.078 341.805v8.254c0 1.65-1.35 3-3 3h-26.35c-1.65 0-3-1.35-3-3v-8.252l-31.431 15.487 47.607 144.657 47.607-144.657-31.433-15.489z" style="" fill="#ffffff" data-original="#ffffff"></path><g style="opacity:0.1;"><path d="m91.297 357.294 47.607 144.657 10.397-31.593-40.112-121.88z" style="" fill="#37005e" data-original="#37005e" class=""></path></g><path d="m122.728 330.633-40.114-19.767c-1.48-.729-2.691.024-2.691 1.674v47.357c0 1.65 1.211 2.403 2.691 1.674l40.114-19.766v-11.172zM195.191 310.866l-40.114 19.766v11.173l40.114 19.766c1.48.729 2.691-.024 2.691-1.674V312.54c0-1.65-1.211-2.403-2.691-1.674z" style="" fill="#92deee" data-original="#92deee"></path><path d="M155.078 350.059c0 1.65-1.35 3-3 3h-26.35c-1.65 0-3-1.35-3-3v-26.477c0-1.65 1.35-3 3-3h26.35c1.65 0 3 1.35 3 3v26.477zM291.218 196.376c.665 0 1.321-.039 1.971-.101v-.286c0-13.641 4.083-26.314 11.075-36.843-3.561-2.929-8.099-4.69-13.046-4.69-11.438 0-20.707 9.384-20.707 20.96s9.269 20.96 20.707 20.96z" style="" fill="#92deee" data-original="#92deee"></path><path d="m494.169 499.631-53.7-229.535a14.84 14.84 0 0 1-6.671 1.593h-10.445c-4.003 32.642-31.49 57.912-64.822 57.912-33.341 0-60.829-25.28-64.823-57.932l.002.02h-10.446c-2.112 0-4.123-.448-5.951-1.245l-49.851 229.17c-.585 2.687 1.187 4.886 3.937 4.886H490.31c2.747 0 4.485-2.191 3.859-4.869z" style="" fill="#ffffff" data-original="#ffffff"></path><g style="opacity:0.1;"><path d="m295.636 281.386-.004-.017a66.04 66.04 0 0 1-1.376-6.05c-.047-.261-.095-.522-.139-.785a66.227 66.227 0 0 1-.262-1.683c-.055-.386-.101-.775-.149-1.163h-10.443c-2.112 0-4.123-.448-5.951-1.245l-49.851 229.17c-.585 2.687 1.187 4.886 3.937 4.886h20.705c-2.75 0-4.522-2.199-3.937-4.886l47.47-218.227z" style="" fill="#37005e" data-original="#37005e" class=""></path></g><path d="M433.798 228.245h-9.924v35.221c0 2.787-.19 5.527-.521 8.224h10.445c8.25 0 15-6.75 15-15v-13.444c0-8.251-6.75-15.001-15-15.001zM293.188 263.465v-35.221h-9.926c-8.25 0-15 6.75-15 15v13.444c0 8.25 6.75 15 15 15h10.446a67.782 67.782 0 0 1-.52-8.223zM389.29 359.374h-13.014v-32.262a64.63 64.63 0 0 1-17.746 2.489c-6.154 0-12.103-.88-17.748-2.49v32.262H327.77c-30.057 0-54.422 24.661-54.422 55.081V504.5h170.363v-90.045c.001-30.421-24.364-55.081-54.421-55.081z" style="" fill="#ffb98a" data-original="#ffb98a" class=""></path><path d="M358.53 129.856c-36.088 0-65.342 29.608-65.342 66.133V224.1c0-36.525 29.254-66.134 65.342-66.134 36.086 0 65.344 29.609 65.344 66.134v-28.111c0-36.525-29.258-66.133-65.344-66.133z" style="" fill="#ffffff" data-original="#ffffff"></path><g style="opacity:0.1;"><path d="M318.509 171.842c8.311-21.428 27.346-37.402 50.428-41.142a65.04 65.04 0 0 0-10.406-.844c-36.088 0-65.342 29.608-65.342 66.133V224.1c-.001-21.258 9.92-40.16 25.32-52.258z" style="" fill="#37005e" data-original="#37005e" class=""></path></g><path d="M423.874 263.465c0 36.526-29.258 66.136-65.344 66.136-36.088 0-65.342-29.61-65.342-66.136V224.1c0-36.525 29.254-66.134 65.342-66.134 36.086 0 65.344 29.609 65.344 66.134v39.365z" style="" fill="#ffd5b3" data-original="#ffd5b3" class=""></path><path d="M358.53 157.966c-30.293 0-55.761 20.867-63.162 49.17-.163.659-.32 1.31-.465 1.941h31.027c18.6 0 35.374-7.871 47.27-20.496l-.004.004c11.894 12.621 28.661 20.492 47.258 20.492h1.705c-.122-.531-.252-1.087-.386-1.66-7.305-28.447-32.851-49.451-63.243-49.451z" style="" fill="#a75436" data-original="#a75436"></path><g style="opacity:0.1;"><path d="M314.001 263.465V224.1c0-32.939 23.795-60.244 54.935-65.29a65.04 65.04 0 0 0-10.406-.844c-36.088 0-65.342 29.609-65.342 66.134v39.365c0 36.526 29.254 66.136 65.342 66.136a65.03 65.03 0 0 0 10.406-.844c-31.14-5.046-54.935-32.352-54.935-65.292z" style="" fill="#37005e" data-original="#37005e" class=""></path></g><path d="M358.53 157.966c-30.293 0-55.761 20.867-63.162 49.17-.163.659-.32 1.31-.465 1.941h31.027c18.6 0 35.374-7.871 47.27-20.496l-.004.004c11.894 12.621 28.661 20.492 47.258 20.492h1.705c-.122-.531-.252-1.087-.386-1.66-7.305-28.447-32.851-49.451-63.243-49.451z" style="" fill="#a75436" data-original="#a75436"></path><path d="M418.712 504.5v-74c0-16.845-13.655-30.5-30.5-30.5-14.432 0-26.514 10.027-29.682 23.492C355.362 410.027 343.28 400 328.849 400c-16.845 0-30.5 13.655-30.5 30.5v74h120.363z" style="" fill="#ffffff" data-original="#ffffff"></path><g style="opacity:0.1;"><path d="M339.177 401.795A30.407 30.407 0 0 0 328.849 400c-16.845 0-30.5 13.655-30.5 30.5v74h20.652v-74c0-13.221 8.413-24.473 20.176-28.705z" style="" fill="#37005e" data-original="#37005e" class=""></path></g><path d="M263.459 112.458a13.778 13.778 0 0 0 9.757 4.096c3.64 0 7.196-1.493 9.762-4.099l43.056-43.788c7.479-7.598 11.599-17.689 11.599-28.417 0-10.727-4.119-20.819-11.597-28.417C318.527 4.202 308.536 0 297.899 0c-9.077 0-17.688 3.062-24.683 8.702C266.221 3.06 257.612 0 248.536 0c-10.636 0-20.629 4.202-28.137 11.832-7.477 7.598-11.595 17.69-11.595 28.418s4.118 20.819 11.593 28.414l43.062 43.794zm-32.368-90.105C235.756 17.611 241.952 15 248.536 15c6.582 0 12.777 2.611 17.442 7.352l1.891 1.923a7.505 7.505 0 0 0 5.346 2.241h.002a7.5 7.5 0 0 0 5.345-2.238l1.893-1.923C285.121 17.611 291.316 15 297.899 15c6.583 0 12.778 2.611 17.443 7.354 4.7 4.776 7.289 11.131 7.289 17.896s-2.588 13.12-7.291 17.897l-42.124 42.84-42.126-42.842c-4.698-4.774-7.286-11.129-7.286-17.895s2.587-13.122 7.287-17.897zM141.414 227.262h5.425a7.5 7.5 0 0 0 0-15h-1.893v-8.981a7.5 7.5 0 0 0-15 0v12.467c.001 6.349 5.145 11.514 11.468 11.514zM113.5 202.231v-9.367a7.5 7.5 0 0 0-15 0v9.367a7.5 7.5 0 0 0 15 0zM171.806 209.731a7.5 7.5 0 0 0 7.5-7.5v-9.367a7.5 7.5 0 0 0-15 0v9.367a7.5 7.5 0 0 0 7.5 7.5zM170.424 249.177a7.5 7.5 0 0 0-13.925-5.576c-2.759 6.893-9.315 11.346-16.701 11.346-7.388 0-13.945-4.454-16.704-11.346a7.5 7.5 0 0 0-13.925 5.576c5.052 12.618 17.075 20.771 30.63 20.771 13.551 0 25.573-8.154 30.625-20.771zM360.825 262.046h2.391a7.5 7.5 0 0 0 1.484-14.853v-2.046c0-4.142-3.357-7.5-7.5-7.5s-7.5 3.358-7.5 7.5v5.731c0 6.159 4.99 11.168 11.125 11.168zM335.97 238.53v-8.558a7.5 7.5 0 0 0-15 0v8.558a7.5 7.5 0 0 0 15 0zM388.593 222.472a7.5 7.5 0 0 0-7.5 7.5v8.558c0 4.142 3.357 7.5 7.5 7.5s7.5-3.358 7.5-7.5v-8.558a7.5 7.5 0 0 0-7.5-7.5zM383.756 271.912a7.502 7.502 0 0 0-9.751 4.174c-2.422 6.049-8.176 9.958-14.658 9.958s-12.236-3.909-14.658-9.958a7.498 7.498 0 0 0-9.751-4.174 7.5 7.5 0 0 0-4.175 9.75c4.715 11.774 15.935 19.382 28.584 19.382s23.869-7.608 28.584-19.382a7.502 7.502 0 0 0-4.175-9.75z" fill="#000000" opacity="1" data-original="#000000" class=""></path><path d="m501.472 497.923-52.545-224.594c4.525-4.119 7.371-10.053 7.371-16.64v-13.444c0-11.433-8.574-20.895-19.629-22.311 0 0-5.136-21.794-5.295-22.243v-2.702c0-40.602-32.678-73.633-72.844-73.633-22.63 0-42.881 10.488-56.252 26.906a27.757 27.757 0 0 0-11.061-2.305c-15.554 0-28.207 12.767-28.207 28.46 0 3.003.467 5.898 1.326 8.619-6.623 5.211-10.898 13.321-10.898 22.432 0 9.564 4.706 18.036 11.898 23.199a22.38 22.38 0 0 0-4.574 13.579v13.444c0 6.936 3.157 13.148 8.107 17.279l-11.117 51.104c-4.539-3.706-10.306-5.938-16.587-5.938h-35.783v-6.594c0-5.3-4.002-9.453-9.11-9.453-1.502 0-2.981.354-4.396 1.051l-19.592 9.653v-17.415c20.738-9.93 36.501-28.802 42.373-51.669h6.992c12.407 0 22.5-10.093 22.5-22.5v-13.445c0-12.407-10.093-22.5-22.5-22.5h-4.49V98.908c0-7.95-6.431-14.417-14.336-14.417h-62.669c-11.466 0-21.696 5.415-28.335 13.836H96.856c-19.965 0-36.208 16.398-36.208 36.555v51.381H56.16c-12.407 0-22.5 10.093-22.5 22.5v13.445c0 12.407 10.093 22.5 22.5 22.5h6.99c5.872 22.867 21.635 41.738 42.374 51.669v17.417L85.93 304.14c-1.415-.698-2.894-1.052-4.396-1.052-5.108 0-9.11 4.152-9.11 9.453v6.594H36.641c-14.577 0-26.436 11.963-26.436 26.667v152.31c0 7.659 6.197 13.889 13.814 13.889h466.29c3.613 0 6.92-1.556 9.072-4.269 2.151-2.714 2.914-6.289 2.091-9.809zm-60.174-254.678v13.444c0 4.136-3.364 7.5-7.5 7.5h-2.44c.002-.242.017-28.444.017-28.444h2.424c4.134 0 7.499 3.364 7.499 7.5zM358.53 137.356c24.424 0 45.346 15.429 53.814 37.171-13.332-14.775-32.52-24.061-53.814-24.061s-40.481 9.287-53.813 24.061c8.468-21.742 29.39-37.171 53.813-37.171zm53.106 63.527a57.14 57.14 0 0 1-28.176-12.81 73.429 73.429 0 0 0 7.68-12.37 58.83 58.83 0 0 1 20.496 25.18zm-33.807-32.049c-9.633 19.836-29.709 32.744-51.898 32.744h-20.798c8.728-21.184 29.372-36.111 53.397-36.111a56.86 56.86 0 0 1 19.299 3.367zm-94.566 95.355c-4.136 0-7.5-3.364-7.5-7.5v-13.444c0-4.136 3.364-7.5 7.5-7.5h2.426s.016 28.202.019 28.444h-2.445zm1.044-61.18-3.669 16.866c-6.812-.529-12.199-6.333-12.199-13.408 0-3.832 1.584-7.288 4.114-9.739a28.08 28.08 0 0 0 11.754 6.281zm6.911-41.053c.895 0 1.77.092 2.614.266a73.611 73.611 0 0 0-7.688 25.617c-4.771-2.031-8.134-6.833-8.134-12.423.001-7.421 5.925-13.46 13.208-13.46zm-7.955 117.233h4.115c5.325 24.646 22.883 44.718 45.904 53.345v19.339h-5.512c-34.143 0-61.922 28.074-61.922 62.581V497h-30.145l47.382-217.815c.06 0 .118.004.178.004zm-42.098 54.945c6.306 0 11.437 5.234 11.437 11.667v2.948L220.353 497h-62.467l64.088-60.013a12.36 12.36 0 0 0 3.904-8.828 12.36 12.36 0 0 0-3.692-8.92l-15.331-15.056 25.201-24.749a12.4 12.4 0 0 0 3.731-8.815 12.396 12.396 0 0 0-3.6-8.868l-26.806-27.124v-.493h35.784zm-35.783 25.763v-3.93l14.363 14.534-25.281 24.829a12.315 12.315 0 0 0-3.716 8.855c0 3.356 1.32 6.501 3.716 8.853l15.2 14.927-55.672 52.132 12.753-38.753a7.5 7.5 0 0 0-14.248-4.69l-13.593 41.304-38.445-116.818 15.394-7.585a10.55 10.55 0 0 0 4.799 5.689v40.227a7.5 7.5 0 0 0 15 0v-38.913h6.504v38.913a7.5 7.5 0 0 0 15 0v-40.229a10.547 10.547 0 0 0 4.798-5.688l15.396 7.586-13.005 39.516a7.5 7.5 0 0 0 14.248 4.69l12.345-37.51.938.462c1.416.698 2.895 1.052 4.397 1.052 5.107 0 9.109-4.153 9.109-9.453zm-75.154-14.338v-17.477h17.35v17.477h-17.35zm60.154 5.281-27.805-13.701v-1.842l27.805-13.701v29.244zm38.767-142.077v13.445c0 4.136-3.365 7.5-7.5 7.5h-4.653a80.83 80.83 0 0 0 .163-4.867v-23.578h4.49c4.135 0 7.5 3.364 7.5 7.5zM140.154 99.491h62.005v42.791a53.766 53.766 0 0 0-9.211-7.342c-13.032-8.254-31.215-12.44-54.044-12.44-7.109 0-13.766.407-19.959 1.215v-2.668c0-11.886 9.514-21.556 21.209-21.556zm-64.506 35.391c0-11.886 9.514-21.555 21.208-21.555h7.909a36.904 36.904 0 0 0-.82 7.719v5.675c-7.239 2.022-13.621 4.757-19.086 8.219a53.766 53.766 0 0 0-9.211 7.342v-7.4zM56.16 229.708c-4.135 0-7.5-3.364-7.5-7.5v-13.445c0-4.136 3.365-7.5 7.5-7.5h4.488v23.578c0 1.636.065 3.255.163 4.867H56.16zm19.488-4.867v-42.626c0-15.938 5.638-27.257 17.237-34.603 10.594-6.71 26.077-10.112 46.019-10.112 19.941 0 35.424 3.402 46.018 10.112 11.599 7.346 17.237 18.665 17.237 34.603v42.626c0 35.352-28.376 64.112-63.255 64.112-34.88.001-63.256-28.76-63.256-64.112zm63.256 79.113c6.331 0 12.481-.784 18.381-2.225v12.748a10.426 10.426 0 0 0-5.207-1.395h-26.35c-1.895 0-3.669.512-5.205 1.394v-12.747a77.35 77.35 0 0 0 18.381 2.225zm-51.481 17.644 27.805 13.701v1.843l-27.805 13.701v-29.245zm-5.889 47.753c1.501 0 2.979-.353 4.395-1.051l.941-.464 36.946 112.262-55.673-52.132 15.198-14.927a12.316 12.316 0 0 0 3.717-8.854 12.314 12.314 0 0 0-3.716-8.855L58.061 370.5l14.362-14.533v3.931c0 5.3 4.002 9.453 9.111 9.453zm-56.33-23.55c0-6.433 5.13-11.667 11.436-11.667h35.782v.493l-26.805 27.124a12.398 12.398 0 0 0-3.6 8.869 12.4 12.4 0 0 0 3.731 8.814l25.201 24.749L55.62 419.24a12.363 12.363 0 0 0-3.692 8.919 12.36 12.36 0 0 0 3.903 8.828L119.921 497H25.204V345.801zM436.212 497h-10v-17c0-4.142-3.357-7.5-7.5-7.5s-7.5 3.358-7.5 7.5v17H305.849v-66.5c0-12.682 10.317-23 23-23 10.725 0 19.928 7.283 22.381 17.71a7.5 7.5 0 0 0 14.602 0c2.453-10.427 11.656-17.71 22.381-17.71 12.683 0 23 10.318 23 23V444c0 4.142 3.357 7.5 7.5 7.5s7.5-3.358 7.5-7.5v-13.5c0-20.953-17.047-38-38-38-11.898 0-22.664 5.428-29.682 14.213-7.018-8.786-17.783-14.213-29.682-14.213-20.953 0-38 17.047-38 38V497h-10v-82.545c0-26.236 21.049-47.581 46.922-47.581h13.012a7.5 7.5 0 0 0 7.5-7.5v-23.016c3.35.479 6.768.743 10.248.743 3.461 0 6.879-.255 10.246-.731v23.003a7.5 7.5 0 0 0 7.5 7.5h13.014c25.873 0 46.922 21.345 46.922 47.581L436.212 497zm15 0v-82.545c0-34.507-27.778-62.581-61.922-62.581h-5.514v-19.309a72.392 72.392 0 0 0 18.794-10.442 7.5 7.5 0 0 0-9.139-11.895c-10.109 7.767-22.178 11.873-34.901 11.873-31.895 0-57.842-26.304-57.842-58.636V224.1c0-2.55.18-5.058.492-7.523h24.75c17.686 0 34.288-6.501 47.177-17.58 11.708 10.112 26.575 16.411 42.754 17.421a59.55 59.55 0 0 1 .513 7.682v39.365c0 7.53-1.387 14.858-4.12 21.78a7.5 7.5 0 0 0 4.221 9.73 7.497 7.497 0 0 0 9.73-4.221 73.712 73.712 0 0 0 3.485-11.566h4.107c.365 0 .728-.01 1.089-.028L485.85 497h-34.638z" fill="#000000" opacity="1" data-original="#000000" class=""></path></g></svg>